<?xml version="1.0" encoding="utf-8"?>
<!-- Generator: Adobe Illustrator 22.1.0, SVG Export Plug-In . SVG Version: 6.00 Build 0)  -->
<svg version="1.1" id="Layer_1" xmlns="http://www.w3.org/2000/svg" xmlns:xlink="http://www.w3.org/1999/xlink" x="0px" y="0px"
	 viewBox="0 0 168 168" style="enable-background:new 0 0 168 168;" xml:space="preserve">
<style type="text/css">
	.st0{clip-path:url(#SVGID_2_);fill:none;stroke:#FCC200;stroke-width:3.8188;}
	.st1{clip-path:url(#SVGID_4_);fill:#FFFFFF;}
	.st2{clip-path:url(#SVGID_6_);fill:#FFFFFF;}
</style>
<g>
	<defs>
		<rect id="SVGID_1_" width="168" height="168"/>
	</defs>
	<clipPath id="SVGID_2_">
		<use xlink:href="#SVGID_1_"  style="overflow:visible;"/>
	</clipPath>
	<path class="st0" d="M84,166.1c45.3,0,82.1-36.8,82.1-82.1S129.3,1.9,84,1.9S1.9,38.7,1.9,84S38.7,166.1,84,166.1z"/>
</g>
<g>
	<defs>
		<rect id="SVGID_3_" x="38.1" y="31.4" width="91.4" height="100.9"/>
	</defs>
	<clipPath id="SVGID_4_">
		<use xlink:href="#SVGID_3_"  style="overflow:visible;"/>
	</clipPath>
	<path class="st1" d="M118.4,90.2c-0.6,0.4-0.9,1.2-0.7,1.9c0.1,0.5,2.8,11.6-7.1,15.8c-0.8,0.4-1.2,1.3-1,2.1c0,0,1.2,3.7-0.4,6.4
		c-0.9,1.4-2.4,2.3-4.7,2.7c-0.5,0.1-1,0.4-1.2,0.8c-1.4,2.3-5.8,8.3-10.3,8.3h-0.1c-2.7,0-5.3-2.3-7.6-6.6c-0.3-0.6-1-0.9-1.6-0.9
		c-0.6,0-1.2,0.3-1.5,0.9c-2.4,4.4-4.9,6.6-7.6,6.6c-4.5,0.1-9-6-10.4-8.3c-0.3-0.4-0.7-0.8-1.2-0.8c-2.3-0.4-3.9-1.3-4.7-2.7
		c-1.6-2.6-0.4-6.4-0.4-6.4c0.3-0.9-0.1-1.8-1-2.1c-9.8-4.2-7.2-15.3-7.1-15.8c0.2-0.7-0.1-1.5-0.7-1.9c-12.9-8.6-4.7-21.4-4.4-21.9
		c0.2-0.3,0.3-0.7,0.3-1.1c-0.6-7.9,0.8-13.7,4.1-17.3c3.2-3.4,7-3.5,7.1-3.5c0.7,0,1.3-0.4,1.6-1.1c1.9-4.9,5.1-5.5,6.7-5.5
		c0.5,0,0.9,0.1,1,0.1c0.6,0.1,1.2,0,1.6-0.5c3.5-3.5,7.2-4.9,10.8-4c2.8,0.7,4.6,2.4,4.6,2.4c0.3,0.3,0.8,0.5,1.2,0.5h0.1
		c0.5,0,0.9-0.2,1.2-0.5c0,0,1.8-1.7,4.5-2.4c3.7-0.9,7.3,0.4,10.9,4c0.4,0.4,1,0.6,1.6,0.5c0.5-0.1,5.1-1,7.7,5.4
		c0.3,0.6,0.9,1.1,1.6,1.1c0.2,0,4,0.1,7.1,3.5c3.3,3.6,4.7,9.4,4.1,17.3c0,0.4,0.1,0.8,0.3,1.1c0,0,2.2,3.4,2.8,7.8
		C126.2,81.8,123.8,86.6,118.4,90.2 M129,75.6c-0.5-4.2-2.3-7.5-3-8.7c0.5-8.7-1.2-15.2-5.1-19.4c-3.1-3.3-6.6-4.2-8.4-4.5
		c-2.8-5.8-7.5-7-10.3-6.7c-5.4-5-10.3-5.1-13.6-4.3c-2.2,0.5-3.8,1.5-4.9,2.3c-1-0.8-2.7-1.8-4.9-2.3c-3.3-0.8-8.2-0.7-13.6,4.3
		c-2.9-0.3-7.6,0.9-10.3,6.7c-1.8,0.3-5.4,1.2-8.4,4.5c-3.9,4.2-5.6,10.7-5.1,19.4c-0.7,1.2-2.5,4.6-3,8.7
		c-0.6,4.7,0.3,11.4,7.7,16.8c-0.9,5,0,13.7,8,18c-0.3,1.8-0.6,5,1.1,7.7c1.3,2.1,3.4,3.6,6.3,4.2c1.5,2.3,6.6,9.3,12.9,9.3h0.1
		c3.4-0.1,6.5-2.1,9.2-6c2.7,3.9,5.8,5.9,9.2,6c6.4,0.1,11.5-7,13-9.3c2.9-0.6,5.1-2.1,6.3-4.2c1.6-2.7,1.4-5.9,1.1-7.7
		c8.1-4.3,8.9-13,8-18C128.7,87,129.6,80.4,129,75.6"/>
</g>
<g>
	<defs>
		<rect id="SVGID_5_" width="168" height="168"/>
	</defs>
	<clipPath id="SVGID_6_">
		<use xlink:href="#SVGID_5_"  style="overflow:visible;"/>
	</clipPath>
	<path class="st2" d="M112.8,94.3c-0.3-0.9-1.3-1.4-2.2-1.1c-10.8,3.6-10.9,12.6-10.9,13c0,1,0.8,1.7,1.7,1.7h0
		c0.9,0,1.7-0.8,1.7-1.7c0-0.3,0.2-6.9,8.5-9.7C112.6,96.2,113.1,95.2,112.8,94.3"/>
	<path class="st2" d="M120.7,90.6c-0.6-0.8-1.7-0.9-2.4-0.3c-2.8,2.2-5.4,2.9-7.6,2.3c-3.9-1.1-5.9-6.3-5.9-6.4
		c-0.3-0.9-1.3-1.4-2.2-1c-0.9,0.3-1.4,1.3-1,2.2c0.1,0.3,2.6,6.9,8.2,8.5c0.8,0.2,1.7,0.4,2.6,0.4c2.6,0,5.3-1.1,8.1-3.2
		C121.1,92.5,121.2,91.4,120.7,90.6"/>
	<path class="st2" d="M98.1,98c-0.7-0.7-1.8-0.7-2.5,0c-0.7,0.7-0.7,1.8,0,2.5c5.6,5.6,4.5,11.1,4.4,11.3c-0.2,0.9,0.3,1.9,1.3,2.1
		c0.1,0,0.3,0.1,0.4,0.1c0.8,0,1.5-0.5,1.7-1.3C103.5,112.3,105.2,105.1,98.1,98"/>
	<path class="st2" d="M116.6,75.8c-0.3-0.9-1.3-1.4-2.2-1c-0.3,0.1-8.6,3-13-2.8c-2.3-3-3.3-5.6-4-7.7c-1-2.6-1.9-5-4.9-5.2
		c-0.9-0.1-1.8,0.6-1.9,1.6c-0.1,1,0.6,1.8,1.6,1.9c0.7,0.1,1,0.5,2,3c0.8,2.2,1.9,5.1,4.5,8.6c3,4,7.2,5,10.7,5c3.4,0,6-0.9,6.3-1
		C116.5,77.7,117,76.7,116.6,75.8"/>
	<path class="st2" d="M83.6,34.8c-1,0-1.7,0.8-1.7,1.7v85.9c0,1,0.8,1.7,1.7,1.7c1,0,1.7-0.8,1.7-1.7V36.6
		C85.4,35.6,84.6,34.8,83.6,34.8"/>
	<path class="st2" d="M104.5,47.1c0-1-0.8-1.7-1.8-1.7c-1,0-1.7,0.8-1.7,1.8c0,0.1,0.1,10.9-5.3,17.8c-0.6,0.8-0.5,1.8,0.3,2.4
		c0.3,0.3,0.7,0.4,1.1,0.4c0.5,0,1-0.2,1.4-0.7C104.6,59.2,104.5,47.5,104.5,47.1"/>
	<path class="st2" d="M111.5,68c-0.8-0.6-1.9-0.4-2.4,0.4l-4.2,5.6c-0.6,0.8-0.4,1.9,0.4,2.4c0.3,0.2,0.7,0.3,1,0.3
		c0.5,0,1.1-0.2,1.4-0.7l4.2-5.6C112.4,69.7,112.2,68.6,111.5,68"/>
	<path class="st2" d="M66.3,107.9c-1.9,0-3.5-1.6-3.5-3.5c0-1.9,1.6-3.5,3.5-3.5s3.5,1.6,3.5,3.5C69.8,106.3,68.2,107.9,66.3,107.9
		 M66.3,97.5c-3.8,0-6.9,3.1-6.9,6.9c0,3.8,3.1,6.9,6.9,6.9s6.9-3.1,6.9-6.9C73.2,100.6,70.1,97.5,66.3,97.5"/>
	<path class="st2" d="M54.2,80.2c-1.9,0-3.5-1.6-3.5-3.5c0-1.9,1.6-3.5,3.5-3.5c1.9,0,3.5,1.6,3.5,3.5
		C57.6,78.7,56.1,80.2,54.2,80.2 M54.2,69.8c-3.8,0-6.9,3.1-6.9,6.9c0,3.8,3.1,6.9,6.9,6.9c3.8,0,6.9-3.1,6.9-6.9
		C61.1,72.9,58,69.8,54.2,69.8"/>
	<path class="st2" d="M71.5,95.8c-1.9,0-3.5-1.6-3.5-3.5s1.6-3.5,3.5-3.5s3.5,1.6,3.5,3.5S73.4,95.8,71.5,95.8 M71.5,85.4
		c-3.8,0-6.9,3.1-6.9,6.9c0,3.8,3.1,6.9,6.9,6.9c3.8,0,6.9-3.1,6.9-6.9C78.4,88.5,75.3,85.4,71.5,85.4"/>
	<path class="st2" d="M66.3,57.7c-1,0-1.7,0.8-1.7,1.7v17.3c0,1,0.8,1.7,1.7,1.7s1.7-0.8,1.7-1.7V59.4C68,58.5,67.3,57.7,66.3,57.7"
		/>
	<path class="st2" d="M71.5,75H59.4c-1,0-1.7,0.8-1.7,1.7c0,1,0.8,1.7,1.7,1.7h12.1c1,0,1.7-0.8,1.7-1.7C73.2,75.8,72.5,75,71.5,75"
		/>
	<path class="st2" d="M71.5,75c-1,0-1.7,0.8-1.7,1.7v10.4c0,1,0.8,1.7,1.7,1.7s1.7-0.8,1.7-1.7V76.7C73.2,75.8,72.5,75,71.5,75"/>
</g>
</svg>
